# xmcd
#
# Track frame offsets: 
#        150
#        3822
#        25592
#        47840
#        69802
#        86227
#        107475
#        127725
#        151175
#        173710
#        194295
#        216280
#        221537
#        240172
#        258912
#
# Disc length: 3773 seconds
#
# Revision: 0
# Processed by: cddbd v1.5.2PL0 Copyright (c) Steve Scherf et al.
# Submitted via: ExactAudioCopy v0.99pb5
#
DISCID=b10ebb0f
DTITLE=Brandy - Never Say Never
DYEAR=1998
DGENRE=R&B
TTITLE0=Intro
TTITLE1=Angel In Disguise
TTITLE2=The Boy Is Mine (Duet with Monica)
TTITLE3=Learn The Hard Way
TTITLE4=Almost Doesn't Count
TTITLE5=Top Of The World (Feat. Ma$e)
TTITLE6=U Don't Know Me (Like U Used To)
TTITLE7=Never Say Never
TTITLE8=Truthfully
TTITLE9=Have You Ever?
TTITLE10=Put That On Everything
TTITLE11=In The Car Interlude
TTITLE12=Happy
TTITLE13=One Voice
TTITLE14=Tomorrow
EXTD=
EXTT0=
EXTT1=
EXTT2=
EXTT3=
EXTT4=
EXTT5=
EXTT6=
EXTT7=
EXTT8=
EXTT9=
EXTT10=
EXTT11=
EXTT12=
EXTT13=
EXTT14=
PLAYORDER=
